<svg xmlns="http://www.w3.org/2000/svg" width="17.143" height="24" viewBox="0 0 17.143 24"><path d="M5.143,32H1.714A1.714,1.714,0,0,0,0,33.714v3.429a1.715,1.715,0,0,0,1.714,1.714H5.143a1.715,1.715,0,0,0,1.714-1.714V33.714A1.714,1.714,0,0,0,5.143,32Zm0,8.571H1.714A1.714,1.714,0,0,0,0,42.286v3.429a1.714,1.714,0,0,0,1.714,1.714H5.143a1.714,1.714,0,0,0,1.714-1.714V42.286A1.714,1.714,0,0,0,5.143,40.571Zm0,8.571H1.714A1.715,1.715,0,0,0,0,50.857v3.429A1.714,1.714,0,0,0,1.714,56H5.143a1.714,1.714,0,0,0,1.714-1.714V50.857A1.715,1.715,0,0,0,5.143,49.143ZM15.429,32H12a1.714,1.714,0,0,0-1.714,1.714v3.429A1.715,1.715,0,0,0,12,38.857h3.429a1.714,1.714,0,0,0,1.714-1.714V33.714A1.714,1.714,0,0,0,15.429,32Zm0,8.571H12a1.714,1.714,0,0,0-1.714,1.714v3.429A1.714,1.714,0,0,0,12,47.429h3.429a1.714,1.714,0,0,0,1.714-1.714V42.286A1.714,1.714,0,0,0,15.429,40.571Zm0,8.571H12a1.715,1.715,0,0,0-1.714,1.714v3.429A1.714,1.714,0,0,0,12,56h3.429a1.714,1.714,0,0,0,1.714-1.714V50.857A1.714,1.714,0,0,0,15.429,49.143Z" transform="translate(0 -32)" fill="#545454"></path></svg>