<svg xmlns="http://www.w3.org/2000/svg" width="24" height="21.329" viewBox="0 0 24 21.329"><path d="M16.775,3.562l3.758,3.758a.407.407,0,0,1,0,.575l-9.1,9.1-3.867.429a.81.81,0,0,1-.9-.9L7.1,12.662l9.1-9.1a.407.407,0,0,1,.575,0Zm6.75-.954L21.492.575a1.63,1.63,0,0,0-2.3,0L17.717,2.05a.407.407,0,0,0,0,.575l3.758,3.758a.407.407,0,0,0,.575,0l1.475-1.475a1.63,1.63,0,0,0,0-2.3ZM16,14.521v4.242H2.667V5.429h9.575a.512.512,0,0,0,.354-.146l1.667-1.667a.5.5,0,0,0-.354-.854H2a2,2,0,0,0-2,2V19.429a2,2,0,0,0,2,2H16.667a2,2,0,0,0,2-2V12.854a.5.5,0,0,0-.854-.354l-1.667,1.667A.512.512,0,0,0,16,14.521Z" transform="translate(0 -0.1)" fill="white" class="room_icons_actions"></path></svg>