<svg width="25" height="25" viewBox="0 0 25 25" fill="none" xmlns="http://www.w3.org/2000/svg">
<path d="M12.5 -0.000488282C5.59476 -0.000488281 1.87844e-10 5.59427 4.19688e-10 12.4995C6.51532e-10 19.4048 5.59476 24.9995 12.5 24.9995C19.4052 24.9995 25 19.4048 25 12.4995C25 5.59427 19.4052 -0.000488282 12.5 -0.000488282ZM19.7581 13.9108C19.7581 14.2435 19.4859 14.5156 19.1532 14.5156L14.5161 14.5156L14.5161 19.1527C14.5161 19.4854 14.244 19.7576 13.9113 19.7576L11.0887 19.7576C10.756 19.7576 10.4839 19.4854 10.4839 19.1527L10.4839 14.5156L5.84677 14.5156C5.51411 14.5156 5.24194 14.2435 5.24194 13.9108L5.24194 11.0882C5.24194 10.7556 5.51411 10.4834 5.84677 10.4834L10.4839 10.4834L10.4839 5.84629C10.4839 5.51362 10.756 5.24145 11.0887 5.24145L13.9113 5.24145C14.244 5.24145 14.5161 5.51362 14.5161 5.84629L14.5161 10.4834L19.1532 10.4834C19.4859 10.4834 19.7581 10.7556 19.7581 11.0882L19.7581 13.9108Z" fill="#545454"/>
</svg>